<?xml version="1.0" standalone="no"?>
<!DOCTYPE svg PUBLIC "-//W3C//DTD SVG 20010904//EN"
 "http://www.w3.org/TR/2001/REC-SVG-20010904/DTD/svg10.dtd">
<svg version="1.0" xmlns="http://www.w3.org/2000/svg"
 width="1315.000000pt" height="1315.000000pt" viewBox="0 0 1315.000000 1315.000000"
 preserveAspectRatio="xMidYMid meet">
<metadata>
Created by potrace 1.11, written by Peter Selinger 2001-2013
</metadata>
<g transform="translate(0.000000,1315.000000) scale(0.100000,-0.100000)"
fill="#000000" stroke="none">
<path d="M6205 12614 c-240 -9 -640 -47 -895 -85 -514 -76 -816 -163 -1262
-360 -393 -174 -751 -356 -993 -503 -299 -181 -738 -628 -1042 -1061 -350
-498 -651 -1188 -767 -1762 -83 -406 -116 -773 -116 -1299 0 -510 63 -1216
161 -1807 63 -378 135 -713 168 -782 16 -33 46 -101 66 -152 44 -111 217 -456
305 -608 82 -144 265 -435 348 -555 126 -182 363 -491 434 -565 34 -36 94
-144 112 -203 5 -16 -3 -39 -29 -82 -20 -33 -58 -115 -84 -182 -73 -188 -101
-323 -104 -506 -2 -131 17 -209 76 -311 68 -121 236 -280 368 -351 33 -17 59
-34 59 -37 0 -4 -45 -95 -99 -202 -143 -283 -249 -521 -362 -809 -54 -139 -99
-255 -99 -258 0 -2 37 -4 83 -4 l83 0 69 178 c230 596 592 1286 880 1677 163
222 366 446 499 552 l80 62 117 -272 c64 -149 198 -450 299 -667 100 -217 189
-424 198 -459 l16 -64 -52 -156 c-90 -275 -119 -413 -126 -598 -4 -109 -2
-125 15 -146 34 -44 114 -42 159 3 30 30 124 72 174 77 41 5 42 4 61 -37 24
-53 49 -70 105 -70 51 0 76 14 149 84 47 44 71 52 71 23 0 -6 19 -51 42 -99
l41 -88 430 0 429 0 -85 92 c-135 148 -273 333 -314 422 -90 194 -263 529
-284 550 -12 13 -12 67 1 86 5 8 10 12 12 10 2 -3 13 -20 26 -38 13 -18 32
-51 43 -75 20 -42 23 -49 68 -122 34 -55 370 -540 447 -645 35 -47 96 -129
136 -182 l73 -98 315 3 315 3 140 58 c392 163 1049 352 1422 410 340 53 649
38 810 -40 49 -23 53 -28 71 -87 40 -123 38 -134 -12 -111 -66 30 -259 65
-405 74 -244 14 -505 -18 -831 -102 -181 -46 -464 -139 -570 -187 l-45 -20
250 2 250 2 170 47 c451 125 881 129 1178 11 55 -21 67 -30 64 -45 -5 -17 7
-18 202 -18 l207 0 -4 34 c-5 42 31 85 119 144 l62 42 49 -43 c83 -71 107 -82
174 -78 29 1 71 46 79 82 8 37 33 38 66 3 48 -53 100 -84 141 -84 75 0 116 41
133 132 10 54 -20 189 -65 290 -22 47 -42 99 -46 115 -9 34 -47 116 -75 161
l-21 33 40 102 c32 82 44 133 63 264 13 89 27 159 31 157 4 -3 8 -16 8 -30 0
-13 5 -24 10 -24 6 0 10 -6 10 -13 0 -19 312 -882 394 -1091 51 -130 64 -172
55 -182 -10 -12 5 -14 90 -14 64 0 101 4 101 10 0 6 -7 25 -16 41 -30 59 -175
444 -340 901 -159 443 -167 469 -185 598 -24 172 -25 175 -51 200 l-22 20 88
572 c202 1326 329 2442 343 3006 l6 252 26 0 c15 0 36 7 48 15 21 15 22 14 32
-37 33 -163 61 -325 61 -357 0 -42 22 -78 54 -91 14 -5 49 -3 92 7 84 18 152
6 230 -38 60 -34 102 -37 131 -9 26 24 28 30 47 155 91 605 54 1595 -94 2540
-73 463 -199 1047 -320 1485 -58 209 -82 279 -133 385 -215 450 -576 949
-1028 1422 -180 187 -404 400 -544 514 -194 159 -498 337 -770 452 -172 72
-550 196 -750 246 -312 77 -764 147 -1135 175 -197 15 -721 26 -905 20z m450
-4329 c70 -378 140 -809 175 -1080 47 -348 47 -351 67 -370 22 -23 89 -19 124
8 28 20 42 22 142 22 94 0 120 -4 164 -22 60 -27 125 -30 147 -8 8 9 18 30 21
48 15 94 27 346 32 712 5 370 7 406 20 370 8 -22 93 -299 189 -615 96 -316
181 -594 190 -617 24 -65 49 -69 241 -39 87 14 216 30 286 36 168 13 642 13
803 -1 185 -16 224 -3 224 70 0 127 -151 828 -250 1162 -27 93 -50 171 -50
174 0 15 98 -118 157 -213 108 -175 215 -401 266 -562 74 -235 172 -692 202
-941 l7 -56 -29 -1 c-15 -1 -88 -1 -161 -1 -105 0 -178 -7 -357 -36 -322 -52
-446 -98 -557 -207 -167 -164 -211 -388 -115 -585 97 -200 311 -347 586 -403
348 -71 719 -27 927 109 253 165 338 502 201 802 -19 41 -46 89 -61 107 -31
36 -30 36 64 22 77 -12 160 -38 177 -54 8 -7 25 -265 54 -808 l43 -798 -33
-97 c-40 -119 -51 -221 -28 -276 9 -20 34 -59 56 -85 67 -79 75 -122 40 -224
-24 -72 -82 -161 -158 -242 -56 -59 -178 -144 -341 -239 -89 -51 -1056 -567
-1064 -567 -3 0 -8 21 -11 48 -28 199 -131 416 -264 557 -15 17 -53 43 -82 58
-69 34 -159 37 -219 7 -47 -24 -112 -103 -142 -172 l-21 -49 -36 34 c-83 79
-199 120 -278 98 -53 -14 -126 -68 -147 -110 l-14 -26 -286 16 c-321 19 -432
30 -656 64 -368 57 -611 126 -870 250 -239 114 -363 155 -466 155 -99 0 -152
-22 -176 -71 -17 -36 -71 -160 -83 -194 -4 -11 -9 -15 -11 -10 -6 16 -62 325
-94 515 -17 96 -76 403 -132 683 -56 279 -98 510 -94 514 3 4 53 -12 109 -35
302 -123 472 -142 948 -102 361 31 429 49 580 158 138 99 194 161 251 272 l33
65 0 155 0 155 -37 75 c-20 41 -57 100 -81 132 -46 56 -201 179 -274 216 -96
49 -420 124 -620 143 -220 20 -689 -20 -863 -74 -105 -33 -213 -92 -264 -143
-13 -12 -17 -13 -21 -2 -15 41 -85 341 -81 345 7 8 455 97 663 132 229 39 789
116 1058 146 116 13 222 29 237 36 16 7 31 24 37 43 15 49 35 574 28 756 -3
91 -17 305 -31 475 -34 410 -33 422 9 190z m-1405 -2103 c0 -10 -6 -67 -14
-128 -30 -231 -30 -583 0 -797 l7 -47 -43 15 c-98 35 -271 126 -280 148 -14
31 -121 502 -127 558 -5 44 -3 49 38 94 67 73 182 133 304 160 88 20 115 19
115 -3z m4735 -13 c76 -36 141 -103 179 -183 47 -99 59 -162 54 -272 -4 -80
-10 -103 -40 -166 -20 -40 -52 -92 -72 -115 -36 -41 -129 -104 -173 -117 -21
-7 -22 -4 -19 31 17 170 17 370 2 523 -16 158 -31 265 -42 303 -8 25 54 23
111 -4z m-3626 -33 c132 -46 290 -177 356 -297 27 -49 30 -64 33 -167 4 -105
3 -116 -22 -167 -40 -80 -107 -149 -224 -226 -109 -73 -179 -99 -271 -99 l-44
0 7 63 c5 49 35 800 36 895 0 30 35 29 129 -2z m2761 -15 c0 -11 -9 -66 -20
-123 -42 -223 -50 -447 -20 -622 5 -33 8 -61 6 -63 -8 -9 -107 37 -162 74
-126 86 -217 214 -230 326 -14 120 64 269 181 345 73 48 157 81 208 81 30 1
37 -3 37 -18z m-6132 -118 c15 -13 32 -68 66 -210 25 -106 46 -197 46 -203 0
-6 -31 -10 -77 -10 -231 -1 -387 -60 -434 -165 -24 -51 -23 -80 2 -135 24 -53
33 -60 81 -60 54 0 70 21 66 88 -3 48 0 57 22 73 37 28 151 49 266 49 84 0
104 -3 117 -17 14 -16 50 -133 43 -140 -1 -2 -27 5 -57 14 -30 9 -85 17 -124
17 -127 1 -187 -58 -216 -212 -14 -75 -7 -331 11 -377 14 -37 26 -45 72 -45
67 0 70 11 62 189 -8 185 3 262 42 288 22 14 30 14 97 -2 39 -9 95 -27 122
-39 l51 -23 48 -154 c96 -306 220 -678 283 -849 77 -207 153 -422 153 -429 0
-4 -19 15 -43 42 l-42 47 -105 5 c-214 12 -419 79 -592 196 -103 70 -247 221
-324 339 -139 215 -251 495 -295 736 -60 329 6 670 163 849 97 110 202 151
389 154 69 1 91 -3 107 -16z m2767 -2491 c55 -21 165 -71 245 -110 285 -139
683 -234 1210 -288 l166 -17 -49 -96 c-27 -53 -60 -115 -74 -138 l-24 -43 -31
36 c-75 85 -201 121 -261 74 -25 -20 -32 -21 -194 -10 -92 5 -273 24 -402 41
-585 78 -891 214 -891 399 0 43 29 109 72 162 31 40 33 40 82 35 28 -3 96 -23
151 -45z m2893 -214 c45 -32 114 -127 167 -233 55 -111 81 -228 91 -415 6
-119 -8 -509 -22 -596 l-4 -31 -173 -6 c-269 -10 -651 -68 -907 -138 -201 -55
-548 -201 -715 -302 -54 -33 -60 -35 -66 -19 -4 10 -17 273 -30 583 -23 560
-23 565 -3 604 10 22 27 42 37 43 21 4 59 -28 88 -74 20 -33 80 -64 125 -64
36 0 79 25 107 62 14 18 53 89 87 156 65 128 122 202 157 202 11 0 29 -10 40
-22 30 -33 81 -139 98 -205 17 -66 25 -73 81 -73 53 0 63 13 79 103 29 166 89
304 147 336 23 13 30 12 81 -12 45 -22 62 -39 95 -90 22 -34 47 -86 57 -115 9
-29 23 -59 32 -67 15 -16 79 -20 100 -7 17 11 29 48 38 112 30 234 112 338
213 268z m-3121 -268 c109 -63 223 -105 390 -146 164 -39 568 -99 738 -109 61
-3 122 -8 136 -11 l27 -5 4 -177 c3 -97 3 -183 0 -190 -18 -49 -740 77 -1237
216 l-170 47 -17 110 c-10 61 -28 180 -41 266 l-24 156 59 -57 c33 -31 93 -77
135 -100z m4181 -126 c-3 -14 -5 -14 -23 0 l-20 16 20 16 c18 14 20 14 23 0 2
-9 2 -23 0 -32z m-3561 -583 c168 -36 443 -77 578 -87 55 -3 103 -12 107 -18
4 -6 8 -44 8 -83 l0 -73 -87 0 c-48 0 -187 -14 -310 -30 -123 -17 -228 -28
-234 -25 -5 4 -42 55 -81 113 -39 59 -83 123 -98 142 -15 19 -35 47 -45 63
-17 26 -17 27 4 27 11 0 82 -13 158 -29z m695 -419 c5 -5 8 -49 6 -98 l-3 -89
-131 -6 c-72 -4 -159 -15 -195 -24 -35 -10 -73 -19 -84 -22 -16 -3 -31 14 -77
90 -32 52 -58 97 -58 100 0 7 54 17 245 43 162 22 279 24 297 6z m2221 -62
c36 -9 51 -19 62 -41 14 -27 85 -260 85 -279 0 -4 -26 -2 -57 6 -32 7 -127 18
-212 24 -447 32 -1049 -119 -1786 -445 -71 -32 -189 -89 -261 -127 -72 -37
-143 -68 -158 -68 l-27 0 3 112 3 113 108 82 c147 111 369 244 562 336 312
149 550 216 973 278 181 26 216 28 427 24 127 -2 251 -9 278 -15z m-2217 -288
c6 -4 13 -28 16 -54 l5 -47 -113 -85 -113 -85 -65 117 -66 117 25 12 c44 24
284 43 311 25z m2259 -172 c86 -19 150 -41 164 -56 5 -5 11 -28 15 -52 6 -39
4 -43 -11 -38 -110 33 -436 42 -633 18 -273 -34 -667 -133 -1040 -262 -285
-98 -417 -150 -657 -256 -106 -47 -197 -83 -203 -79 -5 3 -10 22 -10 41 l0 34
181 91 c423 211 887 392 1240 483 378 97 729 125 954 76z m-3766 1 c46 -9 76
-37 84 -77 4 -21 0 -21 -152 -28 -86 -3 -202 -9 -258 -13 l-103 -6 0 26 c0 24
7 28 94 56 138 45 249 58 335 42z m4336 -502 c-82 -149 -102 -178 -111 -156
-3 8 1 28 9 44 8 15 24 60 37 98 12 39 28 84 35 100 7 17 18 57 24 90 6 33 19
83 28 110 l17 50 15 -106 14 -106 -68 -124z m570 286 c127 -13 185 -23 185
-30 0 -1 -7 -19 -15 -39 l-16 -37 -47 8 c-26 4 -138 8 -250 8 -199 0 -203 0
-208 21 -12 46 -1 69 36 75 62 11 172 9 315 -6z m-1026 -85 c52 -11 100 -25
107 -31 7 -6 17 -34 22 -62 5 -29 17 -92 26 -141 9 -48 15 -90 13 -93 -3 -2
-32 3 -65 12 -163 42 -470 44 -731 5 -407 -61 -987 -227 -1508 -431 -138 -55
-255 -99 -261 -99 -8 0 -20 63 -39 210 l-5 35 209 92 c266 118 369 158 633
250 382 133 791 236 1035 262 55 6 116 13 135 15 84 10 338 -4 429 -24z"/>
<path d="M3531 1533 c-32 -27 -37 -73 -11 -105 11 -15 72 -55 135 -88 241
-128 405 -276 405 -363 0 -72 96 -106 140 -49 28 34 24 107 -8 173 -53 109
-225 251 -458 379 -135 73 -168 82 -203 53z"/>
</g>
</svg>
