<?xml version="1.0" encoding="UTF-8"?>
<svg width="16px" height="16px" viewBox="0 0 16 16" xmlns="http://www.w3.org/2000/svg" xmlns:xlink="http://www.w3.org/1999/xlink" version="1.1">
 <!-- Generated by Pixelmator Pro 1.1.5 -->
 <path id="path" d="M15.45 7 L14 5.551 14 2 C14 1.45 13.55 1 13 1 L12 1 C11.45 1 11 1.45 11 2 L11 2.553 9 0.555 C8.727 0.297 8.477 0 8 0 7.523 0 7.273 0.297 7 0.555 L0.55 7 C0.238 7.325 0 7.562 0 8 0 8.563 0.432 9 1 9 L2 9 2 15 C2 15.55 2.45 16 3 16 L6 16 6 11 C6 10.45 6.45 10 7 10 L9 10 C9.55 10 10 10.45 10 11 L10 16 13 16 C13.55 16 14 15.55 14 15 L14 9 15 9 C15.568 9 16 8.563 16 8 16 7.562 15.762 7.325 15.45 7 Z" fill="#ebdbb2" fill-opacity="1" stroke="none"/>
</svg>
