<?xml version="1.0" encoding="UTF-8"?>
<svg width="1213px" height="1282px" viewBox="0 0 1213 1282" xmlns="http://www.w3.org/2000/svg" xmlns:xlink="http://www.w3.org/1999/xlink" version="1.1">
 <!-- Generated by Pixelmator Pro 1.1.5 -->
 <path id="path" d="M324.2 16.7 C319 21.3 300.8 53.3 289.6 77.7 276.7 105.8 264.7 146.7 259.9 178.5 258.7 186.7 257.6 193.6 257.5 193.7 257.5 193.8 255 193.2 252 192.4 248.8 191.5 240.2 190.6 232 190.3 197.7 189 169.5 199 141 222.6 113.8 245.1 69.7 303.3 49 344.1 23.3 394.8 17.7 418.1 9 511 7.3 528.9 4.6 555 2.9 569 0.1 593.2 0 596.2 0.2 627.5 L0.5 660.5 7.2 637.5 C10.9 624.8 14.4 612.2 15 609.5 16.6 601.5 22.6 547.7 26.5 507.5 32.7 442.1 36.4 420.3 45.8 394 61.2 350.9 91.6 301.2 127.1 261.3 156.6 228.2 177.9 214.2 206.9 208.9 220.9 206.4 235.7 206.4 246.9 209 L255.6 211.1 255.2 232.3 C254.6 260 258.3 300.5 262.9 317.6 263.7 320.5 263.1 321.7 254.7 333.1 233 362.8 214.2 397.3 196.5 440 177.6 485.4 161.5 539.8 150.6 594.5 143.5 630.4 135.9 686.7 133.5 720.5 132.6 734.6 138.2 772.5 145.1 797.7 L148.3 809.5 146.6 849 C145.1 881.9 144.5 889.4 143 894 141.9 897 138.1 911.6 134.5 926.3 125.9 961.8 116.3 994.4 103.1 1033.5 85.9 1083.9 74.5 1111.9 54.5 1152.5 38.9 1184 27 1204.8 11.9 1226.8 L-0.1 1244.1 0.2 1257.8 0.5 1271.4 7.1 1263 C15.2 1252.5 33 1227.1 39.2 1217 60.4 1182.4 84.1 1133.6 102 1087.5 109.5 1068.2 129.4 1010.2 134.1 993.7 135.9 987.2 137.6 982.3 137.8 982.9 138.9 986.3 127.1 1104 121.5 1144.6 113.2 1204.7 100.8 1260.6 91.9 1278.3 L90 1282 108.9 1282 127.9 1282 132.5 1274.9 C140 1263.4 151.1 1249 170.9 1225.5 189.7 1203.3 211.5 1178.8 213.1 1178.2 214.7 1177.6 237.5 1182.9 244.5 1185.5 254 1189.1 262.9 1194.2 267.4 1198.7 269.5 1200.8 280 1215.5 290.7 1231.5 301.5 1247.4 313.7 1265.3 317.8 1271.2 L325.3 1282 336.8 1282 348.4 1282 345.3 1278.7 C339.9 1272.9 330.7 1260 307.9 1226 295.2 1207.1 283.1 1190.2 280 1187 269.5 1176.3 251.5 1168.2 227.5 1163.4 219.8 1161.8 213.3 1160.5 213.2 1160.4 212.1 1159.7 214.6 1155.7 218.7 1151.6 222.1 1148.3 227.1 1145.1 236 1140.7 242.8 1137.3 251.9 1132 256 1128.9 266.1 1121.3 281.2 1105.5 288.6 1094.8 L294.7 1086.1 305.1 1092.3 C333.5 1109.5 351.9 1123 363.5 1135.1 373.4 1145.4 376.7 1150.4 385 1167 389 1175 395.4 1186.9 399.3 1193.5 408.4 1209.1 434.6 1250.7 446.3 1268.2 L455.5 1281.9 465.8 1282 C471.4 1282 476 1281.7 476 1281.4 476 1281.1 471.6 1274.5 466.2 1266.7 455.3 1250.9 425 1203.3 415.4 1186.8 412 1180.9 405.2 1168.6 400.4 1159.3 395.6 1150.1 389 1138.8 385.8 1134.3 377.7 1123 359.1 1106.6 340.9 1094.6 L333.1 1089.4 343.3 1081.5 C352.8 1074 362.8 1068.1 365.9 1068 366.6 1068 372.5 1072.9 378.9 1078.8 394.7 1093.5 412.1 1107.8 426.6 1118.3 433.3 1123 439.1 1127.8 439.5 1128.7 456.7 1172.2 480.9 1242.3 488.2 1269.7 L491.4 1282 500.2 1282 C505 1282 509 1281.8 509 1281.5 509 1281.2 506.8 1272.8 504 1262.8 498.5 1242.2 479.4 1185.1 469.7 1159.7 463.6 1143.7 463.4 1143 465.9 1144.7 484.1 1156.7 521.2 1175.1 551.4 1187.1 564.1 1192.2 575.7 1196.3 577.1 1196.3 L579.7 1196.3 576.4 1210.4 C572.9 1225.2 569.5 1241.6 565.9 1261.1 L563.8 1272.7 558.4 1274.4 C555.4 1275.4 550.1 1277.4 546.7 1279 L540.5 1281.9 565.1 1281.9 589.6 1282 605.1 1278.5 C636.4 1271.3 661.7 1269.5 698.2 1272.1 717.5 1273.4 749 1277.5 759.8 1280 766.4 1281.6 771.8 1282 785.6 1282 795.3 1282 802.9 1281.6 802.6 1281.1 802.3 1280.6 799.2 1278.4 795.7 1276.1 L789.5 1271.9 793.3 1263.9 C796.9 1256.5 804.9 1230.6 806.5 1221.1 807 1218 807.7 1216.9 809.3 1216.5 810.5 1216.2 819.8 1214.2 830 1212 840.2 1209.7 854.7 1206.3 862.4 1204.4 870 1202.5 876.5 1201.1 876.7 1201.4 877 1201.7 873.8 1207 869.6 1213.2 862.1 1224.3 838.5 1252.5 820.1 1272 L810.8 1282 822.8 1282 834.8 1282 842.2 1273.7 C846.3 1269.2 855.4 1258.8 862.3 1250.7 L874.9 1235.9 890.2 1258.9 905.5 1281.9 915.9 1282 926.2 1282 924.4 1279.2 C923.5 1277.7 914.3 1264 904.1 1248.7 886.7 1222.6 885.7 1220.7 887 1218.7 891.2 1212.2 894.1 1205.9 895.1 1201.3 L896.3 1196.2 905.4 1193.9 C910.4 1192.7 923.6 1188.9 934.8 1185.5 945.9 1182.1 955 1179.5 955 1179.8 955 1180.1 950.5 1195.5 945 1213.9 936 1244.4 927 1277.6 927 1280.7 927 1281.7 929.4 1282 935.5 1282 L943.9 1282 944.9 1278.2 C950.5 1256.5 953.7 1244.9 964.2 1209.8 L976.3 1169.1 981.4 1165.7 C984.2 1163.8 988.9 1160.1 991.9 1157.4 995.5 1154.2 997.1 1153.2 996.7 1154.5 993.4 1165.4 984.9 1213.6 983.1 1232 982.5 1237.8 981.8 1251.4 981.4 1262.2 L980.7 1282 989.2 1282 997.7 1282 998.4 1262.3 C999.2 1238.2 1000.1 1229.5 1004.5 1203 1011.8 1158.9 1023.2 1113.1 1039.7 1061.9 1047.1 1038.9 1047.3 1038.3 1050.4 1037.4 1052.3 1036.8 1054.9 1034.6 1057.1 1031.6 1063.5 1023.2 1073 998.2 1073 990 1073 987.7 1074.8 986.3 1088.3 978 1111.5 963.8 1114.3 961.2 1120.5 949 1127.1 936 1133.9 907.5 1134 892.5 1134.1 888.6 1134.7 883.9 1135.3 882 1137.6 875.6 1146.6 863.8 1164 844 1183.7 821.7 1185.2 819.7 1187.5 811.5 1191.3 798.1 1189.5 781.2 1180.8 748.1 1176.8 733 1176.7 732.5 1178 726.1 1179.9 715.7 1183.1 707.3 1194.6 681 L1205.3 656.5 1205.3 642.5 C1205.1 623.6 1200.4 590.7 1188.9 529.6 1179.5 479.6 1177.7 472.3 1170.3 455.1 1148.2 403.3 1116 358.2 1071 315.9 1047.3 293.6 1027.6 278.3 1001.7 262 993.5 256.8 986.4 251.8 985.9 250.8 984.6 248.4 938.6 225.5 913.5 214.7 811.1 171 704.2 149.7 612.5 154.9 601 155.6 590.8 156.3 590 156.5 588.7 156.9 588.5 155.2 588.3 145.7 587.8 122.7 580.8 101 568.5 84 562.4 75.5 560.5 74 556.1 74 549.1 74 528.8 89.6 514.4 106.2 497.8 125.2 486.1 143.6 475 167.8 469.4 180.1 467.9 182.5 465.6 183.3 464.1 183.8 462.6 184 462.3 183.7 462 183.3 460.9 178.9 459.9 173.8 455.8 153.8 447.3 129.9 437.5 110.7 415.9 68 382.3 35.5 343.5 19.4 331.9 14.6 327.4 14 324.2 16.7 Z M346.9 40.1 C366.8 50.5 380.1 61.1 396.2 79.7 413.6 99.8 427.2 124.5 436.4 153.3 441.2 168.2 445 184.2 445 189.1 445 190.5 429.5 197.8 428.6 196.9 428.3 196.7 425.8 190.2 423 182.5 412.9 155.4 401.3 132 388.3 112 378 96.3 369.2 86.1 359.1 77.9 351.3 71.6 350.1 71 346.5 71.2 342.8 71.5 342 72.1 335.5 80.3 330.9 86.1 325.9 94.1 321.2 103.3 310.6 124.4 304.7 143.6 299.1 176 294.3 203.6 292.8 221.4 292.3 256.6 L291.8 288.8 284.6 295.9 277.3 303.1 276.2 294.8 C268.8 243.2 271.2 197.9 284 147.1 291.7 116.4 298 99.1 311.2 72.5 319.7 55.5 322.4 50.7 329.4 39.7 333.8 32.9 333.1 32.9 346.9 40.1 Z M357.2 99.9 C375.1 118.5 398 160.9 410 197.3 411.2 201.1 412 204.3 411.9 204.4 411.7 204.6 408.6 206.2 405 208 391.2 214.9 368.9 227.7 355.1 236.7 L340.8 246.1 333.1 238.8 C328.9 234.8 322.2 229.2 318.1 226.5 L310.9 221.5 311.5 211.5 C312.2 200.7 317 170.7 320.1 157 323.7 141.8 329 126.8 335.5 113.5 341.5 101.1 347.3 92 349 92 349.4 92 353.1 95.5 357.2 99.9 Z M558.9 100.8 C563.4 108.2 567.3 118.7 569.6 129.5 571.1 136.1 572.1 157.3 571 158.3 570.7 158.6 568.1 159 565.1 159.1 L559.8 159.5 557.1 153 C553.6 144.2 551.5 141 547.2 137.7 544.8 135.9 542.5 135 539.9 135 534.5 135 527 142.2 516.9 157.3 512.4 164 508.6 169.6 508.5 169.8 508 170.4 491 174.8 491 174.3 491 174 493.3 169.2 496.1 163.6 506.1 143.8 523 120.8 537.9 106.7 545.2 99.8 552.6 94 554.1 94 554.5 94 556.7 97.1 558.9 100.8 Z M689.5 173.4 C758 179.7 835.2 199.9 905 229.8 929.3 240.2 968.6 259.5 971.2 262.3 972.5 263.6 979.8 268.7 987.5 273.5 1017.6 292.4 1034.6 305.4 1059.7 328.9 1081.7 349.5 1100 370.3 1115.8 392.8 1135.4 420.6 1156.4 461.5 1162.4 483.5 1165.4 494.7 1180.9 579.3 1184.5 604.8 1186.7 620.3 1188.2 634.5 1188.2 641.3 L1188.4 652.5 1177.9 676.5 C1166.8 701.7 1164.1 708.9 1161.6 720.7 1159.3 731.2 1159.6 735 1163.9 751 1172.2 781.9 1174.1 798.1 1170.6 807.9 1169.5 810.9 1163.7 818.3 1151.5 832.1 1132.8 853.3 1123 866.3 1119.9 874.1 1118.7 877.2 1117.7 883.6 1117.1 891.3 1115.9 906.6 1114.1 915.6 1109.6 929.6 1105.7 941.5 1101.8 948.4 1096.7 952.2 1094.9 953.5 1087 958.6 1079.1 963.4 L1064.6 972.2 1057.1 968.6 C1052.9 966.6 1047.5 964.4 1045 963.7 1041.1 962.5 1040.5 962.1 1040.9 959.9 1041 958.6 1045.6 935.7 1051.1 909.2 1059.9 865.9 1061.2 860.6 1063.3 859 1064.6 858 1066.2 855.2 1066.9 852.8 1068.5 847.7 1074.8 836.5 1081.5 827.2 1081.6 827.1 1083.1 827.7 1084.9 828.6 1088.4 830.4 1092.4 829.9 1095.3 827.3 1098.7 824.2 1097.5 818.8 1090.5 806.2 1073 774.4 1061.1 737.5 1063.5 722.8 1065.1 713.4 1070.6 704.7 1084.1 689.8 1093.9 679.2 1098.4 671.9 1100.5 663.9 1101.9 658.4 1102 656.4 1101 650.1 1099 637.7 1095.1 631.9 1075.9 613 1057.6 594.9 1054 590.1 1047.6 574.6 1041.5 559.7 1031.3 547.8 1014.5 535.9 1008 531.2 986 519 978.7 516 974.6 514.3 973.1 513.2 973.4 512.1 978.7 493.6 989.3 413.9 987.2 408 985.1 401.9 977.3 399.9 973.1 404.4 971.2 406.4 970.8 408.4 969.9 419.6 967.4 453.8 958.7 505.2 949.8 538.5 940.4 574 928.5 607 914.8 635.2 L906.6 652 902.8 652 C895.3 652 892.1 658.9 894.9 668.7 895.8 671.6 895.2 672.8 887.3 684.7 882.6 691.7 875.1 702.2 870.6 707.9 861 720.3 840.1 742.2 828.6 751.9 819.1 759.9 800.8 773.2 800.2 772.5 799.9 772.3 803.4 768.2 807.8 763.5 820.7 749.9 832.1 735.1 847.1 712.5 857.9 696.2 863.6 686.3 872.4 668.5 878.7 655.8 885.4 641.2 887.5 636 913.2 571 925.3 497.7 922.1 427.1 921 402.3 920.1 396.6 917 395 913.8 393.3 908.2 393.8 905.9 396.1 904 398 903.9 398.8 904.6 417.9 905.3 436.7 905.2 437.9 903 444.6 895.8 466.6 875.4 510.5 860.7 535.5 835.9 577.8 801.6 618.7 769 645.1 758 653.9 731 671.3 718.9 677.2 709.2 682 695.5 688 694.3 688 694.1 688 699.9 682.7 707.2 676.2 739.5 647.3 772.3 604.4 792.6 564.4 805.4 539.1 816 510.1 821.4 485.9 825.7 466.4 824.6 461 816.2 461 811.4 461 810.3 461.9 805.5 470 791 494.5 760.6 530.8 731.6 558.5 685 602.8 635.2 637.7 577.5 666.3 548 681 536.9 685.8 507.5 696.7 481.8 706.2 465.9 711.3 446 716.6 438.6 718.5 431.7 720.3 430.8 720.6 429.3 721 429.9 718.6 434 706.9 452.1 655.8 484.6 586.6 517.8 529 528.9 509.8 553.6 470.2 563.9 455.1 571.9 443.2 572.8 439.7 568.5 435.5 565.8 432.8 560.6 432.2 558 434.3 553.9 437.5 522.8 486 504.1 518.3 461.9 591.1 425.2 673.1 404 742 398.6 759.5 388.4 799.3 385.5 814.6 374.7 870.4 372.3 922.7 378.6 967.3 379.4 973.2 380 978.6 379.8 979.2 379.3 980.6 370 969.8 360.3 956.5 333.5 919.7 317.1 877.8 310.4 829 308.3 813.1 307.5 778 308.9 758.5 311.5 723.2 318.1 689 329.2 653.5 334.1 637.5 344.6 609.8 350.6 596.8 353 591.4 355 585.7 355 584 355 577.6 347.5 573.9 342.1 577.7 339.2 579.7 333.2 592.4 324.4 615.1 313.5 643.5 305.8 669.8 299.9 698.8 L297.6 710.1 292 709.5 C284.2 708.6 268 710.6 259.8 713.5 235.1 722 216.6 744.5 208 776.5 203.1 794.5 201.6 807.3 201.6 833 201.5 855.8 201.7 858.6 204.4 873 206.1 882.5 208.9 893.3 211.6 900.8 214 907.6 215.5 912.8 215 912.5 214.4 912.1 211.8 908.6 209.1 904.7 180 861.4 160.7 806.8 152.1 743.5 150.3 730.6 150.1 726.7 151 716 154.6 669.2 164 608.8 174.5 565.5 190.7 498 211.4 441.5 237.7 393 250 370.5 256 360.8 269 343.1 274.8 335.3 280.2 327.8 281 326.6 287.5 317.1 313.3 290.4 328 277.9 351.1 258.3 388 235.1 418.5 220.8 472.9 195.4 528.9 179.7 586 174 618.2 170.8 657.9 170.6 689.5 173.4 Z M314.9 245.4 C317.4 247.3 321.1 250.5 323 252.5 L326.5 256.2 321.5 260.6 C318.8 263.1 314.8 266.4 312.8 268.1 L309 271.2 309 256.6 C309 248.6 309.3 242 309.6 242 310 242 312.3 243.5 314.9 245.4 Z M903.5 496.2 C899.2 539.2 887.1 590.5 873 626 846.5 692.4 806.3 747.9 753.5 791 744.7 798.2 738 804.4 737.2 806.1 735.5 810.2 737.6 815.2 741.9 817 744.9 818.2 746 817.9 758.8 813 815.1 791.3 863 752.1 899 698.3 L906.5 687.1 909.5 689.9 C915.2 695.3 931.5 705.8 943.7 711.9 963.8 721.9 985.4 730 1017.1 739.5 1032.8 744.2 1036.2 744.9 1038.6 744 1042.3 742.5 1043.9 740.2 1044 735.9 1044 730.3 1041.5 728.8 1020.5 722.5 992.3 714.1 975.5 707.8 956.1 698.4 938.4 689.8 926.3 682.1 919.8 675.3 L916.2 671.5 926 651.5 C942.5 618.3 957.6 577.5 966.6 542.3 969.2 532.1 969.7 531.1 971.5 531.6 975 532.7 999.3 546.3 1005 550.4 1019.2 560.6 1027 569.9 1032.5 583.1 1038.8 598.3 1044.9 606.7 1062.8 624.4 1080.8 642.2 1084.1 647 1084.2 655.4 1084.3 662.2 1081.2 667.6 1071.1 678.5 1054.9 696 1047.7 709 1046.4 722.8 1045.3 734.2 1049.5 755.1 1056.5 773.5 1058 777.3 1059.1 781.4 1059.1 782.5 1059 786.2 1023.1 961 1022 963 1021.5 964 1021 966.3 1021 968.1 1021 972.4 1013.3 1010.4 1011.4 1015.3 1010.6 1017.4 1010.2 1019.5 1010.5 1019.9 1011 1020.9 1001.5 1067.9 999.7 1072.8 997.9 1077.9 996.7 1078.4 993.2 1075.5 991.6 1074.1 987 1071.7 983.2 1070 L976.1 1067 947.3 1067 C920.5 1067 918.1 1067.1 913 1069.1 902.5 1073.1 895.4 1080.2 891.2 1091 882.1 1114.1 890.2 1133.3 912.9 1142.5 924 1147 927.3 1147.3 952.4 1146.1 965.1 1145.4 976.8 1144.7 978.4 1144.5 981 1144 980.9 1144.3 976.4 1148 967.9 1155 951.3 1162.5 930 1169 904.6 1176.8 810.6 1199.9 809.3 1198.7 809.2 1198.5 809.5 1194.6 810 1189.9 811.4 1177.5 811.2 1170.6 809 1158.8 805.5 1139.4 796.8 1125.9 784.3 1120.3 777.8 1117.5 771.7 1117.5 766 1120.5 762.5 1122.3 754.2 1130.2 751.8 1134 L750.3 1136.5 748.2 1132.5 C745.2 1126.6 740.4 1122.5 731.8 1118.5 723.8 1114.8 721.1 1114.4 714.5 1116 710.9 1116.8 710.1 1116.6 705.5 1113.6 702.8 1111.8 697.1 1107.2 693 1103.5 682.6 1094.1 681.7 1093.6 677.3 1094.5 667.9 1096.4 658 1095 615.7 1086.5 568.9 1076.9 554.7 1073.1 543.9 1067.1 531.7 1060.3 523 1048.9 523 1039.8 523 1033.8 521.3 1028.2 519 1027 515.8 1025.3 510.2 1025.8 507.9 1028.1 506 1030 505.8 1031.1 506.2 1039.9 506.5 1048.2 507 1050.5 509.8 1056.4 516.1 1069.8 533.6 1083.7 550.9 1089 L556.5 1090.8 557.1 1101.6 C558 1117.2 562.5 1128 571.9 1136.9 575.3 1140.1 586.2 1146 588.7 1146 589.3 1146 590.1 1146.4 590.5 1147 591.1 1148 584.2 1179 583.1 1180.2 582 1181.5 536.3 1162.6 515.3 1152.2 495.6 1142.5 466.5 1125.6 455.7 1117.7 452.6 1115.4 444.3 1109.5 437.3 1104.5 389.8 1071 344.5 1022.4 314.8 973.2 311.6 967.8 310.7 967.1 307.3 966.5 294.1 964.4 276.7 957.2 266.5 949.5 242.8 931.7 228.1 906 221.3 870.5 218.9 857.9 218.6 854.3 218.6 833.5 218.6 813.9 218.9 808.6 220.9 797.5 225.1 773.7 231.9 757.7 242.9 745.6 254.7 732.7 263.6 728.3 281.7 726.5 285.2 726.2 289.6 726.2 291.6 726.6 294.8 727.2 295.1 727.5 294.6 729.9 294.3 731.3 293.6 738.3 293 745.5 292.4 752.6 291.7 761.4 291.4 764.8 L290.8 771.2 285.1 770.5 C278 769.7 269.5 771.2 262.2 774.5 256.6 777.1 248.5 783.6 246.3 787.4 242.9 793.1 246.9 800 253.5 800 256.2 800 258 799.1 261.3 796.1 269 789.1 275.8 786.7 285.2 787.7 L291 788.3 291 794.2 C291 799.5 290.8 800.1 289.3 799.5 288.3 799.1 285.2 798.5 282.4 798.3 276.5 797.7 270.1 800.4 267.4 804.5 265.2 807.9 252 849.8 252 853.6 252 857.8 254.7 860.9 259.1 861.6 265.5 862.7 267 860.2 274.5 836.5 278.2 825 281.2 815.4 281.4 815.3 281.5 815.2 283.9 816.2 286.8 817.5 290.4 819.2 292.1 820.6 292.4 822.2 292.6 823.5 293.8 831.2 295 839.5 304.3 903.8 332.8 959.1 380.8 1006.2 389.5 1014.8 392.3 1017 394.5 1017 396.1 1017 404.3 1019.3 412.7 1022 426.7 1026.6 428.8 1027.1 437.8 1027.1 446.6 1027.2 448.4 1026.9 455.1 1024.1 465.2 1019.9 471.5 1014.2 476.7 1004.4 488.7 981.9 481.9 962.4 458.7 952.7 442.4 945.9 406.8 934.7 399.7 934.2 393.5 933.8 392.9 933.5 392.3 931.2 392 929.8 392 918.3 392.3 905.6 393.6 857.7 401.4 812.4 418.1 754.5 L422.2 740.5 441.3 735.6 C474 727.2 511.8 714.5 544.5 700.8 559 694.8 597.3 676.2 610.2 669 623.9 661.3 654.1 642.7 663.4 636.2 710 603.8 754.1 564.2 785.3 526.7 790.2 520.8 794.4 516 794.6 516 795.7 516 786.3 538.5 779.3 552.4 771.7 567.9 767.7 574.8 758.4 589 732.6 628.6 701.5 661.5 663.5 689.4 654.7 695.9 646.7 702.1 645.8 703.2 641.7 707.9 645.4 717 651.4 717 652.8 717 660.5 715.4 668.7 713.5 700.8 706.1 726.5 694.9 755.5 675.7 773.5 663.8 780.1 658.6 794 646.1 819.2 623.3 839.9 599 860.7 567.9 872 551.1 880 537.1 892.1 512.7 898.4 500.2 903.6 490 903.8 490 904 490 903.8 492.8 903.5 496.2 Z M176.4 883.5 L181.1 892.2 178 927.3 C172.4 991.4 164.7 1045.1 153 1103 146.6 1134.2 136.8 1174.6 134 1181 L133 1183.5 133.4 1180.9 C137.9 1157.8 148.3 1066 153.5 1004.2 158.1 948.2 162.9 875.3 163 858.5 163 854.8 163.3 855.2 167.4 864.7 169.8 870.2 173.8 878.7 176.4 883.5 Z M205 928 C234.2 965.4 272.2 993.4 309.6 1005.1 L315.8 1007 327.1 1021.8 C333.4 1029.9 341.9 1040.3 346.1 1045 L353.7 1053.5 348.1 1056.8 C342.2 1060.2 326.7 1072 321.3 1077.2 L318.2 1080.2 315.3 1078.3 C313.8 1077.2 308.2 1074 302.9 1071.1 291.6 1065.1 287.3 1064.5 284.1 1068.6 282.9 1070.1 282 1071.8 282 1072.5 282 1074.6 270.3 1091.2 263.4 1098.8 253.5 1109.7 242.1 1118.4 230.1 1124.3 212.6 1132.7 205.8 1138 199.3 1148.2 196 1153.5 192.9 1164.3 193.2 1169.8 193.4 1173.8 193 1174.5 187.3 1180.3 179.7 1188.1 143.7 1230.6 134.4 1242.7 130.6 1247.7 127.4 1251.7 127.3 1251.6 127.1 1251.5 129.5 1245.4 132.5 1238.1 140 1219.9 151.8 1183.5 157.9 1159.3 169.2 1114.9 181.1 1049.6 188.5 991.9 190.4 977.2 196 921.4 196 917.2 196 916.4 196.2 916.7 205 928 Z M1053.1 985.7 C1054.7 986.6 1056 988.2 1056 989 1056 992 1052.9 1001.4 1048.8 1010.7 1045 1019.4 1044.6 1020 1041.8 1020 1039.3 1020 1030.1 1018.2 1029.2 1017.5 1029 1017.3 1035.6 984.3 1036.6 980.8 1037.1 979.2 1037.6 979.3 1043.6 981.5 1047.2 982.9 1051.4 984.7 1053.1 985.7 Z M619.4 1104.6 C646.7 1110.2 659 1112.2 666.9 1112.5 L677.4 1113 684 1118.6 C687.6 1121.8 692.2 1125.4 694.2 1126.8 697.3 1128.8 697.8 1129.6 697 1131.1 695.7 1133.5 693.7 1134.6 693.3 1133.3 692.2 1130 685.1 1122.7 679.5 1119.1 673.5 1115.2 672.8 1115 668 1115.6 660 1116.7 653.7 1121.7 645.7 1133.5 639.3 1143 636.7 1146 634.8 1146 634.4 1146 634 1145.4 634 1144.7 634 1142.1 628.1 1135.1 623.7 1132.6 619.1 1129.9 614 1129.3 609.7 1130.9 606.2 1132.3 594.6 1130.5 589.2 1127.7 580.5 1123.4 574 1111.8 574 1100.6 L574 1095.2 578.3 1096.2 C580.6 1096.7 599.1 1100.5 619.4 1104.6 Z M732.5 1140 C734.8 1143.6 736.4 1149.5 737.5 1158.7 738.4 1165.6 741 1169 745.6 1169 751 1169 752.7 1167.5 756.6 1159.7 761 1151 768 1141 772.1 1137.5 774.9 1135.2 775.3 1135.1 777.8 1136.4 784.7 1140 789.4 1148.2 792.1 1161.4 794.4 1172.5 794.4 1177.5 792.5 1195 790.1 1216.7 789.2 1221.6 785 1236 781 1249.9 777.5 1258.6 774.1 1262.9 L772.3 1265.3 762.9 1263.2 C727.5 1255.2 664 1251.7 632.5 1256.1 618.1 1258 590.3 1263.7 584.9 1265.9 582.6 1266.7 582.3 1266.6 582.6 1265.2 582.8 1264.3 584.1 1257.2 585.5 1249.5 590 1225.3 606.9 1154.7 608.9 1152 610 1150.4 611.9 1149.4 613.9 1149.2 616.9 1148.9 617.2 1149.2 619.9 1155.3 623.3 1162.8 624.5 1163.5 633.9 1163.1 644.5 1162.7 649.2 1159.3 658.8 1145 661.5 1140.9 664.9 1136.5 666.2 1135.2 L668.7 1133 672.1 1135.3 C677.1 1138.7 679.9 1144.4 681 1154.1 681.9 1161.1 682.5 1162.9 684.6 1164.7 687.5 1167.4 691.6 1167.7 694.7 1165.5 695.9 1164.6 699 1160.3 701.5 1155.7 706.9 1146.2 715 1135.1 716.6 1135 717.2 1135 718.3 1134.4 718.9 1133.6 720.8 1131.4 729.7 1135.6 732.5 1140 Z" fill="#3c3836" fill-opacity="1" stroke="none"/>
 <path id="path-1" d="M504 756.6 C496.2 757.5 488.6 759.2 484.2 761.1 473 765.9 461 778.6 453.8 793.2 450 800.8 449.6 802.3 449.2 811.1 448.9 818.7 449.2 822.2 450.9 828.4 456.1 847.3 468.4 863.2 487.2 875.4 520.1 896.6 567 911.9 599.9 912.3 618.1 912.4 627.8 910.1 645.2 901.3 660.2 893.7 666.3 888 671.8 876.1 674.7 869.7 675.3 867.1 676.3 856 677.3 843.9 677.2 842.7 675.1 834.8 672.2 824.4 667.7 816.3 659.8 807.2 651.1 797.4 644 792.2 627.3 783.4 602.8 770.5 583 763.6 556.9 758.9 546 756.9 513.5 755.5 504 756.6 Z M526.4 775.2 C526.1 776.5 525.1 778.8 524.2 780.5 521.4 785.9 513 814.4 510 828.4 508.3 836.1 506.5 847.4 505.8 853.7 505.2 859.9 504.3 865 503.8 865 502.5 865 491.8 858 486.8 853.8 481.4 849.3 473 838.3 470.5 832.5 467.6 825.8 466 818.8 466 812.7 466 806 470.2 796.7 476.8 788.8 487.2 776.4 495 773.4 517.8 773.1 527 773 527.1 773 526.4 775.2 Z M557.8 776.5 C571.6 778.9 605 789.6 605 791.7 605 794.7 582.8 869.7 578.2 882.3 L574.6 892.1 570.5 891.4 C560.2 889.7 523 876.4 521.4 873.8 520.4 872.2 523 850.4 526.1 835.1 529.3 819 536.3 795.8 541.8 783.2 545.8 773.9 545 774.2 557.8 776.5 Z M628.6 803.7 C637.8 808.7 650.6 821.6 654.8 829.9 659.4 839.1 660.4 844.9 659.2 855.5 657.5 871.6 652.7 878.4 637.5 886 623.1 893.3 609 896.6 597.7 895.4 592.9 894.8 592 894.5 592.6 893.1 595.3 886.7 603.4 860.5 611.2 832.8 616.3 814.8 620.8 800 621.1 800 621.5 800 624.8 801.7 628.6 803.7 Z" fill="#3c3836" fill-opacity="1" stroke="none"/>
 <path id="path-2" d="M896 856.2 C885.5 857.1 875.4 859.4 869 862.4 866 863.8 863 865 862.4 865 861.8 865 858.1 867.2 854.1 869.9 839.5 879.8 832.8 892.9 832.8 911.3 832.9 922.3 834.7 929.7 840 940.6 844.2 949.2 857.4 965.4 861.4 967 862.6 967.4 868.7 970.3 875 973.3 893.5 982.2 907.1 986.4 927.5 989.6 945.8 992.4 970.4 990.8 983.5 985.9 990.6 983.2 997.1 977.3 1001.6 969.3 1003.6 965.7 1006.3 961.2 1007.5 959.3 1010.9 954.4 1014 944.5 1014.7 936.3 1015.5 926.2 1012.8 912.9 1007.5 901.5 1003.9 893.8 1002.3 891.5 995.8 885.5 984.4 874.9 973.3 869.1 951.2 862 935.5 856.9 913.6 854.6 896 856.2 Z M897.4 877.2 C897.1 878.5 895.7 881.5 894.5 884 891 891 883.2 915.5 881 926.5 879.9 932 878.7 940.7 878.3 945.7 878 950.8 877.5 955 877.3 955 875.5 955 868.6 950.3 864.8 946.3 851.9 932.9 846.7 914.5 851.6 899.8 855.9 886.6 867.6 878.9 887 876.5 892.2 875.8 896.9 875.2 897.3 875.1 897.8 875.1 897.8 876 897.4 877.2 Z M937.5 877.6 C946.3 879.1 958.7 882.5 960.3 884 961.5 885.1 959.5 901.4 955.9 920 952.1 939.3 950.2 946.3 944.2 961.7 L939.5 974 934.5 973.4 C925.6 972.3 914.7 969.9 905.4 966.9 L896.2 964 895.6 955.7 C894.2 939.2 900.1 914.5 911.7 887.8 L917.2 875.2 922.8 875.7 C926 876 932.6 876.8 937.5 877.6 Z M984.3 899.5 C990.3 904.3 994.2 911.7 996.6 922.9 999.4 935.8 997.4 943.8 987.7 959.3 985.3 963 982.4 966.7 981.2 967.6 978.7 969.3 968.9 972.3 962.3 973.4 L958 974 960.2 968.8 C966.1 954 974.5 918.8 976.5 900.2 977 895.7 977.5 894.2 978.4 894.8 979 895.3 981.7 897.4 984.3 899.5 Z" fill="#3c3836" fill-opacity="1" stroke="none"/>
</svg>
