<?xml version="1.0" encoding="UTF-8"?>
<svg width="1315px" height="1290px" viewBox="0 0 1315 1290" xmlns="http://www.w3.org/2000/svg" xmlns:xlink="http://www.w3.org/1999/xlink" version="1.1">
 <!-- Generated by Pixelmator Pro 1.1.5 -->
 <path id="path" d="M597.5 41.6 C524.9 47.2 471.9 57.5 428.6 74.7 386.9 91.1 323.4 122.6 299.3 138.7 274.4 155.4 234.8 195.2 209.2 229.3 174.6 275.5 146.8 332.3 130.2 391 122.3 418.7 118.3 440.6 114.8 476 112.8 495.9 112.5 503.9 112.6 546 112.6 582 113 598.7 114.3 615 119.4 677.8 127 731.4 138.1 783.4 141.7 800.1 143.1 804.5 149.3 819 174.4 877.3 215.4 943.2 258.1 994.2 264 1001.2 271 1013.3 271 1016.4 271 1017.3 269.2 1021.4 267.1 1025.7 259.4 1040.9 253.8 1057 251.5 1070.4 249.5 1082.4 249.5 1104 251.6 1111.1 256.7 1128.3 272.5 1147 291.3 1158.2 295 1160.4 298.2 1162.6 298.5 1163 298.7 1163.4 293.3 1175.3 286.4 1189.6 270.3 1222.6 266.6 1231 256.8 1255.5 247.6 1278.4 245 1285.6 245 1288.2 245 1289.8 245.9 1290 254.8 1290 L264.7 1290 264.8 1287.2 C264.8 1285.6 267.8 1276.9 271.3 1267.9 298.1 1199.5 335.7 1131.5 370.8 1088 385.1 1070.3 408.8 1047 412.6 1047 414.3 1047 417.6 1053.5 429.4 1080.3 434.5 1091.9 445.4 1116.1 453.5 1134 470.3 1170.9 476 1184.7 476 1188 476 1189.3 474 1196.5 471.5 1204 462.7 1231 459 1249.7 459 1267.3 459 1277.4 459.2 1278.2 461.5 1280.5 465.1 1284.2 471.2 1283.9 477.6 1279.9 484.9 1275.2 490.1 1273 494.1 1273 497.2 1273 498.1 1273.6 500.5 1277.1 503.9 1281.9 505.7 1283 510.5 1283 514.5 1283 519.4 1280.7 526 1275.6 528.4 1273.7 530.9 1272.4 531.4 1272.7 532.7 1273.6 538 1285.7 538 1288 538 1289.9 538.6 1290 551.5 1290 L565.1 1290 561.7 1287 C557.9 1283.7 555.5 1278.9 556.3 1276.6 557.2 1274.4 563 1271.7 567 1271.7 569 1271.7 573.3 1273.1 576.7 1274.9 584.9 1279 589.5 1279 594.5 1275 596.6 1273.3 598.9 1272 599.6 1272 600.3 1272 603.4 1275 606.5 1278.6 611 1283.9 612 1285.8 611.6 1287.6 611 1290 611 1290 619.6 1290 L628.2 1290 622 1283.2 C614.8 1275.5 598.8 1255.7 594.2 1248.9 592.5 1246.4 586.2 1234.2 580.1 1221.9 574.1 1209.6 566.8 1195.5 564 1190.6 559.2 1182.3 557.9 1177.3 560.5 1176.7 561 1176.6 563.6 1180.5 566.3 1185.5 575.1 1201.7 619.3 1266.1 633.5 1283.2 L639 1290 671.3 1290 703.5 1290 712.5 1286.1 C752.9 1268.7 829.1 1247.1 866.5 1242.4 883.9 1240.3 912.8 1240.3 923.5 1242.4 927.9 1243.3 934.3 1245.3 937.6 1247 943 1249.6 944 1250.6 945.8 1254.8 948 1259.9 949.5 1266 948.6 1266 948.3 1266 944.8 1265.1 940.8 1264 899.6 1252.8 851.3 1257.3 788.5 1278.4 764.6 1286.5 761.2 1287.9 763.1 1289.1 765.1 1290.3 1135 1290.3 1135 1289 1135 1288.5 1132.4 1281.4 1129.1 1273.3 1121.9 1255.2 1103.6 1205.7 1092.5 1174 1084 1150 1082 1142.3 1079.9 1126.7 1079 1119.9 1078.2 1117.2 1076.3 1115 L1073.9 1112.1 1078.4 1083.3 C1100.3 943.6 1114 827.8 1117 756.5 1118.1 730.5 1118.2 730 1122.7 730 1125.2 730 1126.2 733.7 1130.4 758.4 1131.9 766.6 1133.7 774.4 1134.5 775.7 1136 777.9 1136.4 778 1148.8 777.8 1161.3 777.5 1161.6 777.6 1168.4 780.8 1178.4 785.5 1185 784.8 1186.9 778.6 1194.5 754.6 1196.5 653.4 1190.5 593 1184.8 535.8 1174.1 470.4 1160.9 413 1155.4 388.9 1146.4 355.1 1141.9 341.5 1131.3 309.6 1099 258.6 1060 212.5 1039.6 188.4 1001.6 150.1 980 132 929.3 89.5 850 59.6 754 47 715.9 42 711.6 41.8 656 41.5 626.6 41.4 600.3 41.4 597.5 41.6 Z M686.3 59 C737.4 61.2 788.6 68.6 828 79.5 866.2 90.1 890.3 98.9 913.3 110.7 949.7 129.4 967.8 143.2 1005.1 180.2 1055.8 230.5 1100.5 290.5 1119.6 333.9 1134.7 368.4 1157.8 473.3 1168 554.2 1174.9 608.9 1175.4 617.4 1175.4 679 1175.5 734.5 1174.8 751.3 1171.9 758.7 1171.1 760.8 1170.5 761.1 1168.2 760.6 1166.7 760.3 1162.1 759.6 1158 758.9 1153.9 758.3 1150.2 757.5 1149.7 757.1 1149.3 756.7 1147.8 751.2 1146.5 744.9 1138.1 706.7 1126.6 662.2 1118.5 637 1103.9 591.2 1080.9 526.6 1073.4 510.2 1068 498.4 1064.7 495.8 1058.5 498.4 1051.9 501.2 1052.3 504.8 1062.6 530.6 1075 562 1086.4 599 1094.6 634.3 1099 653.2 1105 685.9 1105 690.7 1105 694.3 1105 694.3 1101.2 693.8 1099.1 693.5 1091.9 690.7 1085.2 687.6 1057.3 674.7 1038.3 669.4 1011.1 667 1004.8 666.5 999.3 665.7 998.8 665.2 998.3 664.7 996.4 655 994.5 643.6 988.6 608.5 979.8 571.4 972.4 551 967.4 537 952.8 509.7 940.7 491.5 933.9 481.3 927.9 473.6 913.9 457 899.1 439.3 898.8 439 894.4 439 889.5 439 886 442.1 886 446.6 886 448.5 889.6 460.1 894 472.6 903.8 500 909.5 519.1 916.1 545.5 921 565.1 928.4 600.5 929.3 608.7 L929.8 612.8 884.6 613.3 C850.9 613.7 837 614.2 829.5 615.4 824 616.3 816.8 617.3 813.4 617.6 807.4 618.2 807.3 618.2 806.2 615.4 802.8 606.9 760.4 468.8 742.1 407 727.7 358.1 720.5 336.1 717.9 333.4 713 328.2 704 331.5 704 338.5 704 342.3 708.8 359.9 716.5 384.5 719.6 394.4 723.2 406.8 724.6 412 730.3 434 735 473.2 735.9 507.4 736.5 534.1 735.5 589.9 734.2 596.5 L733.5 600.5 718.5 600.1 C710.2 599.9 703.2 599.5 702.8 599.1 702.4 598.8 700.5 587.3 698.5 573.7 690.2 515.9 679.1 454.4 667.6 403 656.4 352.6 651.9 334.9 649.8 332.8 647.2 330.2 641.2 330.4 638.3 333.2 636.5 334.9 636 336.4 636 340.4 636 346.7 638.3 376.5 646 470 L651.9 542.5 651 572.5 C650.5 589 649.9 603.3 649.5 604.2 648.6 606.6 647.2 606.9 630 609.1 566 617.2 535.2 621.9 493.2 630 478.7 632.7 465.7 635 464.4 635 462.3 635 461.8 634 459.1 625.2 457.5 619.9 454 607.6 451.4 598 446.5 579.4 445 575.6 442.5 574.6 439.1 573.3 434 574 432 576 428.4 579.6 428.6 580.5 444 639.5 472.4 748.2 495.2 855.9 514.4 972 524.3 1031.6 534.4 1104.5 537.5 1138.7 L538.2 1145.9 534.8 1146.4 C533 1146.7 527 1147.1 521.5 1147.4 514.3 1147.8 508.1 1148.9 499.1 1151.5 492.2 1153.4 486.1 1155 485.4 1155 483.6 1155 481.9 1152 470.2 1126.9 434.1 1050 399.5 964 364.9 865.3 340.5 795.5 321.7 727.2 307 655.2 302.3 631.8 300.9 626.5 299 624.5 295.9 621.2 289.9 621.1 286.9 624.1 285 626 284.8 627 285.4 632.9 285.7 636.5 287.6 648 289.5 658.4 291.4 668.8 293 678.7 293 680.5 L293 683.7 282.6 684.9 C261.6 687.3 251.6 691.4 240.5 702.4 228.6 714.2 221 729.7 216.8 750.5 214.2 763.6 214.1 787.1 216.5 802 219.8 822.5 228.6 848.1 239 867.6 255.9 899.5 273.1 917 301.2 931.1 317.9 939.5 329.7 942.7 350.2 944.6 356.9 945.2 357 945.2 361.7 950.6 364.2 953.7 370 959.3 374.4 963.2 378.9 967.1 383.5 971.9 384.8 973.9 386.7 977 403.8 1019 405.4 1024.5 406.1 1027.2 406 1027.3 394.8 1036.9 370.6 1057.4 342.6 1091.9 319.9 1129.1 315 1137.2 310.2 1144.4 309.4 1145.1 307.3 1146.8 301.9 1144 291.2 1135.4 281.5 1127.7 275.9 1120.9 271.4 1111.5 268.1 1104.7 268 1104.3 268 1091.5 268 1071.4 272.2 1056 283.7 1033 287.8 1025 290 1019.4 290 1017.2 290 1012.9 282.1 995 277.7 989.3 275.9 987 270.2 979.8 264.9 973.3 224.9 923.8 188.2 863.7 166.2 811.7 157.7 791.6 152.5 769.4 144.6 719 133.6 649.5 129.4 594.1 130.3 533.1 131 485.8 133.8 456.2 140.6 423.5 154.4 357.2 188.6 284.1 230.2 231.9 259.8 194.8 293.3 163 318.7 147.9 355.5 126.1 421.1 95.5 454.5 84.5 492.9 71.8 548.5 62.4 605 59.1 624.7 57.9 660.2 57.9 686.3 59 Z M672.6 519 C675.1 533.6 679.3 561.1 682.1 580.2 687 614.6 688 619.8 690.3 621.2 692.7 622.7 698.1 622 703 619.5 707.1 617.4 709.4 617 716 617 722 617 726.1 617.7 731.6 619.5 739.8 622.3 744.7 622.7 747.3 620.7 748.2 620.1 749.4 617.1 749.9 614 751.3 606.1 753 575.4 753 558.2 753 542.8 754.1 508.8 754.6 509.3 754.8 509.4 761.7 531.8 770 559 788.2 618.4 792.6 631.9 794.7 634.2 797 636.7 803.1 636.5 823.5 633.3 840.4 630.5 840.7 630.5 893 630.5 921.9 630.5 946.1 630.1 946.8 629.7 948.8 628.4 948.2 616.8 945.5 601 941 575.3 931 532 923.9 507 922.2 501.2 920.6 495.6 920.4 494.5 919.5 491.5 929.5 505.3 935.7 515.8 942.8 527.8 952.8 548.8 957.4 561.3 964.9 581.5 979.8 649.3 980 664.1 980 665.5 977.7 665.8 964.3 666.3 941.7 667.2 916.9 670.6 899.6 675 878.4 680.4 861.1 696.1 855.6 714.9 853.4 722.6 853.5 735.3 856 743.2 861.3 760.5 879.2 777.9 899.5 785.5 925.1 795.2 968.3 796.6 992.5 788.5 1015.5 780.8 1030.9 765.1 1036.1 744 1038.4 735 1037.8 716.9 1035.1 708.6 1032.7 701.1 1029 693.2 1025.7 688.6 L1023.7 685.8 1028.1 686.5 C1035.5 687.6 1044.4 690 1046.6 691.5 1049.3 693.3 1049.1 690.5 1054 779.5 1057.7 847.3 1057.8 851.8 1056.3 856.1 L1054.7 860.5 1048.1 858.3 C1044.3 857 1039 856 1035.7 856 1026.2 856 1008.3 859 996.2 862.6 976.6 868.5 965.6 876.2 960.3 887.8 958 892.6 957.9 894 958.2 905.3 958.5 919.2 960.2 924 967.3 931.7 977 942.3 987.3 946 1006.5 946 1018.8 946 1021.1 945.7 1034.9 942.1 1051.9 937.7 1052.3 938 1042.9 946.4 1032 956.2 1013.2 967.1 946 1002.9 924.3 1014.4 906.4 1023.7 906.2 1023.5 906 1023.4 905.1 1019.2 904 1014.2 900.4 996.6 890.3 976.5 879.5 965.5 871.6 957.5 867.4 955.5 858.5 955.5 852.7 955.5 850.7 956 846.8 958.3 841.9 961.2 834.9 969.7 832.9 975.5 L831.7 978.7 825.7 973.9 C818.7 968.3 812.8 966 805.3 966 797.9 966 793.4 968.2 787.5 974.5 L782.5 979.9 759.5 978.4 C682.8 973.6 641.9 965.2 600.5 945.7 580.4 936.2 567.7 931.9 558.4 931.2 545.1 930.3 540.1 933.6 534.5 947 532.4 951.9 530.4 956 530 956 529.7 956 528.6 951.9 527.7 946.8 526.1 937.7 526.1 937.6 528.2 936.2 529.3 935.4 531.3 932.4 532.6 929.6 534.5 925.5 535 922.8 535 915.9 535 908.4 534.6 906.6 532 901.4 528.2 893.8 523.6 888.3 519.7 886.6 L516.5 885.3 507.1 837.6 C502 811.4 498 789.7 498.2 789.4 498.5 789.2 503.4 790.8 509.1 793.1 523.1 798.7 539.9 802.8 553.3 804 565.3 805 588.2 804.1 615 801.4 640.7 798.9 646.1 797.4 658.2 789.2 673.1 779.1 681 770.8 687.1 758.8 690 753.2 690 752.8 690 736.4 L690 719.7 686 712.6 C680.7 703 674.9 696.2 666 689 652.4 678 637.8 672.5 606.7 666.8 596 664.8 591.2 664.5 568 664.6 540.2 664.6 525.9 665.9 508.1 670.1 499.2 672.2 483.9 678.9 478 683.4 475.5 685.3 474.4 685.7 473.9 684.8 472.5 682.2 467.8 661.3 467.7 657 L467.5 652.5 482.3 649.3 C516.7 642 568.7 633.8 627.5 626.5 659.9 622.5 663.5 621.8 665 619 668.4 612.6 669 542.8 666 504 664.9 490 664 477.1 664.1 475.5 664.2 471.9 666.6 483.9 672.6 519 Z M596.8 682.4 C600.8 683.3 604.6 684.2 605.2 684.6 607.6 686.1 604.3 776 601.5 782.6 600.2 785.6 599.8 785.9 593.3 786.6 589.6 787 578 787.4 567.5 787.4 544.5 787.5 543.5 787.2 540.5 779 538.7 774 538.6 770.7 538.6 739.5 538.5 704.8 539.6 690.7 542.6 684.9 544 682 545.4 681.6 557 680.6 565.4 679.9 589.5 681 596.8 682.4 Z M969.6 685.5 C971 687.4 972.5 693.5 974.3 705 976 715.8 975.9 767.4 974.2 772.2 973 775.5 972.4 776 968.4 776.6 963.2 777.4 933.5 776.5 930.3 775.5 921.3 772.6 920.6 720.6 929.3 691 930.4 687 930.9 686.5 934.5 685.7 943.3 683.8 950.9 683.1 959.4 683.4 966.5 683.7 968.6 684.1 969.6 685.5 Z M522.9 684.9 C524.1 685.7 524.1 687.4 522.9 697.1 521.4 709.4 520.9 772.3 522.3 777.2 522.9 779.3 522.7 780 521.6 780 519.1 780 494.1 767 493.1 765.2 491.4 761.9 480 712.5 480 708.3 480 704.7 489.8 695.1 497.6 691.2 503.1 688.5 512 685.6 518 684.7 519.4 684.4 520.7 684.2 521 684.2 521.3 684.1 522.1 684.4 522.9 684.9 Z M999.3 687.8 C1005.4 691.1 1012.7 699 1016.1 706.1 1019.9 713.9 1021.3 721.4 1020.8 731.6 1020.3 742.5 1016.7 751.2 1009.5 758.9 1004.9 763.8 996.4 770 994.3 770 993.6 770 993.1 759.8 992.7 740.2 992.2 713.1 991.2 701 988.4 687.2 987.8 684 987.8 684 991.1 684.6 993 685 996.7 686.4 999.3 687.8 Z M635.7 690.5 C645.3 694.2 653.8 700 662.1 708.7 672.1 719.2 674 723.8 674 737 674 746.4 673.7 748 671.3 752.9 667.5 760.3 660.9 766.8 649.9 774 640.4 780.1 632.2 783.4 623.7 784.4 619.4 784.9 618.9 784.8 619.4 783.2 619.8 781.7 620.7 764.6 622.5 718.5 622.8 711.3 623.3 701.6 623.6 696.7 624.2 688.4 624.3 688 626.6 688 627.9 688 632 689.1 635.7 690.5 Z M911 692.2 C911 693.5 910 699.4 908.9 705.5 906.3 719.8 905.2 750.4 906.9 761.9 907.6 766.5 907.9 770.4 907.6 770.7 907.4 771 903.4 769.2 898.8 766.8 888.6 761.5 878.9 752.2 874 743 870.9 737.3 870.5 735.6 870.5 729 870.5 713.1 880.1 700.5 897.8 692.9 901.5 691.3 906 690 907.8 690 910.5 690 911 690.4 911 692.2 Z M1080 705.1 C1085.4 707.8 1091.8 711.8 1094.1 713.9 1097.9 717.3 1098.4 718.2 1099.1 723.6 1101 739.7 1096.5 806.6 1088.9 874.5 1081 945 1057.6 1108 1047.9 1159.8 L1045.7 1171.2 1040.6 1170.6 C1026.7 1168.9 1014.4 1168 1003.3 1168 996.6 1168 990.9 1167.6 990.6 1167.2 989.5 1165.4 987 1136.9 985.9 1114 984.4 1081.7 985.2 1026.4 987.3 1015.3 990.5 998.7 989.8 999.8 1001.3 993.4 1019.9 983.1 1041.4 970 1048.3 964.9 1056.5 958.7 1065.3 948.7 1071 939.2 1082.4 919.9 1083 903.8 1072.8 888.6 1065.9 878.3 1066.1 880.2 1070 869.3 1074.6 856.3 1074.8 849.3 1072.1 799.5 1069.5 752 1067 704.1 1067 701.7 1067 699 1069.4 699.6 1080 705.1 Z M297.8 702.8 C300 704.3 309.8 741.7 308.3 743 307.9 743.4 301.7 744.2 294.5 744.8 269.3 746.9 257 754.8 257 768.8 257 774.4 259.9 779.7 264.2 781.8 266.5 782.8 267.5 782.8 270.5 781.6 274 780.1 274 780.1 274 773.7 274 769.5 274.5 766.9 275.3 766.1 278.7 763.4 286.1 761.8 298.3 761.3 309.6 760.8 311.2 760.9 313 762.5 314.8 764.1 318.5 773.8 317.7 774.6 317.5 774.8 315 774.3 312 773.5 299.7 770.2 288.8 772.4 283.7 779.2 279 785.3 277.8 793.1 278.2 812.9 278.6 834.5 279.5 837 287.1 837 293.8 837 293.8 836.8 294.2 814 294.6 789.8 294.8 789 301.8 789 304.4 789 310.1 790.3 314.5 791.8 321.5 794.2 322.7 794.9 324.2 798 325.1 799.9 330.2 814.8 335.4 831 344 857.6 349.7 874.1 365.9 919.9 L371 934.2 367.6 931.2 C364.6 928.6 363.2 928.1 356.3 927.6 327.5 925.4 307.5 918.1 288.7 903 254.3 875.4 228 812.2 232 766.9 234.1 742.3 240.7 726.1 253.2 714.4 262.7 705.4 271.6 702.2 287 702.1 292.2 702.1 297.1 702.4 297.8 702.8 Z M570.2 951 C575.1 952.6 586.2 957.3 594.8 961.4 626.5 976.4 658.7 984.9 705.5 990.5 731 993.6 734.3 994 734.8 994.5 735.3 995 727 1012.8 724.4 1016.8 L722.9 1019.1 718.2 1014.9 C709 1006.8 702.5 1005.2 694.1 1009 690 1010.9 688.8 1011 674.6 1010 630.3 1006.9 592.3 1000.2 572.5 991.9 559.7 986.6 552.9 981.9 549.3 975.9 544.4 967.9 545.1 962.3 552.1 952.5 556.1 947 557.7 946.8 570.2 951 Z M865.2 975 C870 979 879.4 993.1 883 1001.8 887.6 1012.7 889.1 1021.7 889.7 1042.8 890.2 1058.5 888.7 1098.6 887.6 1099.8 887.4 1099.9 878.6 1100.4 867.9 1101 839.4 1102.4 816 1105.7 789.9 1112 765.1 1118.1 745.1 1125.7 716.7 1140.2 709.1 1144.1 702.7 1147.1 702.5 1146.8 701.6 1145.9 698 1061.8 698 1041.4 698 1031.7 698.3 1029.9 700.1 1027.6 701.2 1026.2 702.7 1025 703.3 1025 703.9 1025 707.1 1027.9 710.5 1031.5 L716.5 1038 722.7 1038 C728.5 1038 729.1 1037.8 732.3 1034.5 734.1 1032.6 738.1 1026.6 741 1021.3 752.8 999.8 756.4 995.5 760.8 997.9 763.2 999.2 769.3 1010.7 771.4 1017.9 773.5 1025.1 775.4 1027 780.2 1027 784.9 1027 787.7 1024.5 788.5 1019.3 791 1004.2 798 986.1 802.2 983.9 803.3 983.3 805.8 983 807.7 983.3 814.7 984.5 820.7 991.3 825.2 1003.3 827.9 1010.5 830.5 1013 835.1 1013 841.3 1013 841.8 1012.1 845 996 849.4 974.3 856 967.4 865.2 975 Z M557.5 1003.5 C578.9 1014.1 613.5 1021.5 661.7 1025.7 L680.8 1027.4 681.5 1044.6 C681.9 1054.1 681.9 1062.4 681.5 1063 680.6 1064.5 666.4 1063.8 650.7 1061.5 626 1057.8 572.7 1045.9 551.7 1039.4 541.4 1036.2 542.7 1038.7 538.1 1011.2 533.8 985.7 533.6 986.8 541.7 993.5 545.4 996.5 552.5 1001 557.5 1003.5 Z M957.8 1025.1 C966.8 1031.9 966.5 1029.6 966.5 1084 L966.5 1131.5 960.2 1156.4 C956.7 1170.1 952.9 1183.6 951.8 1186.3 949.1 1192.4 949.8 1193.9 941.9 1163.5 934.6 1135.6 929.5 1118.1 926.8 1111.9 924.7 1106.9 923.1 1105.8 912.5 1101.8 L906.5 1099.5 906.2 1092 C906 1087.9 906.3 1075.5 906.9 1064.6 907.8 1048.4 908.3 1044.4 909.6 1042.9 913 1039.2 947.2 1021 950.8 1021 951.6 1021 954.8 1022.8 957.8 1025.1 Z M558.7 1059.4 C563.7 1060.7 569.2 1062.7 570.8 1063.9 579.3 1069.9 611.4 1117.9 641.5 1169.4 L654 1190.8 654 1201.7 C654 1213.8 655.3 1224.6 660.5 1257.9 664.3 1281.8 664.6 1287.5 661.9 1287.5 659.2 1287.5 623.3 1239.6 600.4 1205.5 583.8 1180.8 574.3 1165.2 563 1144.1 L554.8 1128.7 551.3 1102.1 C547 1068.6 546.2 1057 548.1 1057 548.9 1057 553.6 1058.1 558.7 1059.4 Z M615.2 1071.9 C635.1 1075.7 655.8 1078.8 669.3 1079.9 675.2 1080.4 680.7 1081.4 681.5 1082 682.5 1082.9 683 1085.2 683 1089.5 L683 1095.8 673.3 1096.4 C660.6 1097.3 647.2 1098.7 633.6 1100.6 L622.7 1102.2 620.4 1099.8 C618.2 1097.5 599 1070.3 599 1069.4 599 1068.8 598.3 1068.7 615.2 1071.9 Z M683.5 1122 L683.5 1130.5 678.5 1130.7 C670.6 1131.1 655 1132.9 648.8 1134.2 644.2 1135.1 642.8 1135.1 641.5 1134 639.9 1132.7 632 1120 632 1118.8 632 1116.9 660.7 1113.1 673 1113.3 L683.5 1113.5 683.5 1122 Z M899.8 1119.4 C906.5 1120.4 909.5 1121.3 910.6 1122.7 912.1 1124.7 919 1145 919 1147.6 919 1149.1 918.2 1149.2 912.8 1148.6 892.4 1146.3 886.4 1146 876 1146.5 847 1148.1 813.5 1154.8 781.3 1165.6 761 1172.3 717.5 1190.2 697.1 1200.1 685.9 1205.5 675.6 1210 674.4 1210 671.8 1210 671.7 1209.4 671.9 1197 672.1 1191.9 672.3 1191.3 676.3 1187.7 682.9 1181.8 705.2 1166.9 719.3 1159.1 758.6 1137.1 795.4 1125.9 849 1119.6 864.4 1117.8 888.3 1117.7 899.8 1119.4 Z M683.4 1150.6 C686 1153.1 685.3 1156.3 681.3 1160.2 676.3 1164.9 667.2 1171 665.1 1171 663.5 1171 659 1164.4 655.4 1156.7 652.6 1150.7 655.7 1149.3 672.2 1149.1 679.7 1149 682.2 1149.3 683.4 1150.6 Z M1069 1163.3 C1069 1163.6 1095.7 1236.9 1107.4 1268.7 1110.5 1277.1 1113 1284.8 1113 1286 1113 1288 1112.7 1288 1054.1 1288 1003.1 1288 995.1 1287.8 994 1286.5 992.3 1284.5 994.5 1281.2 1001.1 1276 1008.1 1270.5 1010.2 1270.1 1014.6 1273.6 1021.3 1279.1 1025.3 1281 1029.9 1281 1033.9 1281 1034.8 1280.5 1038.8 1276.3 1043.8 1271.1 1042.8 1271 1051.9 1277.4 1060.2 1283.2 1069.6 1281.5 1073.5 1273.4 1074.9 1270.4 1075.2 1268 1074.7 1260.6 1074.2 1250.6 1071 1240.5 1062 1219.3 1059.2 1213 1057 1206.7 1057 1205.4 1057 1204.1 1058.1 1199.8 1059.4 1195.8 1060.8 1191.8 1062.8 1183.5 1063.9 1177.5 1066 1165.4 1066.8 1163 1068.1 1163 1068.6 1163 1069 1163.1 1069 1163.3 Z M913.5 1166.3 C924.3 1169.4 926.9 1170.9 927.6 1174.7 928 1176.6 928.1 1178.3 927.8 1178.5 927.6 1178.7 925.4 1178.4 923 1177.7 920.1 1177 908.5 1176.6 891 1176.6 861.1 1176.6 859.6 1176.7 828.8 1183.6 789.2 1192.3 747.5 1206.3 698.5 1227 685.5 1232.5 674.7 1237 674.4 1237 674.1 1237 674 1235.5 674.2 1233.8 674.5 1230.6 675.1 1230.2 691.5 1221.9 753.3 1190.8 808.8 1171.9 859.5 1164.6 861.2 1164.4 872.6 1164.3 885 1164.4 902.5 1164.6 908.8 1165 913.5 1166.3 Z M535.9 1166.8 C539.5 1168.6 541.9 1171.4 540.8 1172.5 539.7 1173.7 527 1174.9 509.6 1175.6 493.4 1176.3 492.8 1176.3 493.2 1174.4 493.4 1173.2 495.5 1171.7 499 1170.3 511.9 1165.2 529.6 1163.5 535.9 1166.8 Z M972.9 1198.9 C973 1202.5 971.8 1205.5 966.4 1215.4 956.7 1233.2 955.6 1233.4 961.6 1216.5 963.6 1211 966.2 1202.6 967.5 1197.8 970.7 1185.4 971.2 1184.6 972.1 1190 972.5 1192.5 972.9 1196.5 972.9 1198.9 Z M1024.8 1187 C1037.1 1188.4 1041 1189.6 1041 1192 1041 1193.1 1040.2 1194.3 1039.3 1194.8 1037.6 1195.7 993.9 1194.5 991.3 1193.5 989.4 1192.8 989.7 1188.3 991.8 1187.1 994 1185.7 1012.5 1185.7 1024.8 1187 Z M546.1 1196 C549.3 1199.2 572.8 1245.9 573.2 1250 573.5 1252.4 573.2 1252.5 566.4 1253.1 562.5 1253.5 557.6 1254.4 555.6 1255.1 552.4 1256.3 551.6 1256.2 549.2 1254.7 538.3 1247.5 528.9 1248.6 516.9 1258.1 L514.2 1260.2 509.8 1257.6 C503.7 1254 498 1253.5 488.2 1255.5 483.7 1256.4 479.6 1256.8 479 1256.5 477.2 1255.4 477.9 1248.7 481.4 1235 486 1216.9 491.6 1199.7 493.9 1196.8 496.1 1194.1 502.2 1193.5 527.8 1193.2 L543.2 1193 546.1 1196 Z M919.6 1195.4 C928.8 1197.4 931.5 1198.7 932.9 1201.7 934.1 1204.4 937 1219.8 937 1223.8 937 1226 936.7 1226.2 933.8 1225.6 921.8 1223.2 914.5 1222.8 890.5 1223.3 861 1223.8 852.4 1225.1 815.5 1234.2 777.2 1243.6 747.5 1253 708.8 1267.9 695.8 1272.9 684.7 1277 684.1 1277 682.7 1277 681.1 1270.8 680.3 1262.3 L679.7 1255.2 685.6 1252.2 C703.9 1243 750.8 1224.6 780.4 1215 811.1 1205.1 844.5 1197.1 864 1195 869.2 1194.5 875.1 1193.8 877 1193.6 884.5 1192.7 912.7 1193.9 919.6 1195.4 Z M1037.7 1215.6 C1039.2 1216.7 1042 1220.6 1043.8 1224.2 1047.5 1231.6 1055.3 1252 1054.7 1252.6 1054.5 1252.9 1051.9 1251.9 1048.9 1250.5 1040 1246.4 1031.5 1247.5 1027.6 1253.4 1025.5 1256.7 1024.1 1256.7 1019.5 1253 1013.8 1248.5 1012 1248.4 1004.4 1251.9 1000.8 1253.6 997.2 1255 996.5 1255 995.7 1255 994.1 1253.7 992.8 1252.1 987.8 1245.9 983.7 1245 972.6 1247.6 969.8 1248.3 969.7 1248.2 970.4 1245.4 971.5 1241.3 983.9 1219.3 987.3 1215.7 L990 1212.8 1012.5 1213.2 C1033.2 1213.5 1035.2 1213.7 1037.7 1215.6 Z M927.3 1279.4 C937.3 1281.7 949 1286.1 949 1287.4 949 1287.8 920.8 1288 886.3 1288 817.1 1287.9 816.5 1287.8 840.5 1282.6 864.6 1277.3 875.8 1276 897 1276.4 913.7 1276.7 918.1 1277.2 927.3 1279.4 Z" fill="#3c3836" fill-opacity="1" stroke="none"/>
 <path id="path-1" d="M352.2 1150.3 C349.1 1153.6 349.2 1159.4 352.4 1162.3 353.7 1163.5 358.5 1166.5 363.1 1169 376.4 1176 391.2 1186.4 397.2 1192.8 400.9 1196.9 403.3 1200.6 404.9 1204.8 407.3 1211.6 409.9 1214 414.6 1214 422.1 1214 424.6 1202.6 419.3 1192.1 413.8 1180.9 392.7 1163.9 370.6 1152.6 360.2 1147.3 355.6 1146.7 352.2 1150.3 Z" fill="#3c3836" fill-opacity="1" stroke="none"/>
</svg>
